<svg width="47" height="47" viewBox="0 0 47 47" fill="none" xmlns="http://www.w3.org/2000/svg">
<path fill-rule="evenodd" clip-rule="evenodd" d="M7.88927 46.7565H39.1111C43.46 46.7565 47.0003 43.2444 47.0003 38.9082V7.84835C47.0003 3.51213 43.4699 0 39.1111 0H7.88927C3.53045 0 0 3.51213 0 7.84835V38.9082C0 43.2444 3.53045 46.7565 7.88927 46.7565ZM34.0324 33.5318L29.2298 26.4879C33.1745 25.4578 35.3933 22.3185 35.4032 18.2177C35.4032 17.9332 35.3736 17.6193 35.3144 17.2956C34.7622 14.0974 32.356 11.4878 29.2496 10.5165C27.9577 10.1143 26.5869 9.89849 25.157 9.89849C22.4352 9.89849 19.8909 10.6833 17.7707 12.0764C14.0627 14.4701 11.6072 18.6396 11.6072 23.3682C11.6072 28.1165 14.0627 32.2761 17.7707 34.6796C18.53 35.1603 19.3387 35.5822 20.1769 35.9059C21.7153 36.5044 23.4016 36.8477 25.157 36.8477C27.7703 36.8477 30.1963 36.1218 32.2574 34.8366C32.8885 34.4638 33.4802 34.0322 34.0324 33.5318Z" fill="#FE9800"/>
</svg>
