<svg width="172" height="124" viewBox="0 0 172 124" fill="none" xmlns="http://www.w3.org/2000/svg">
<g clip-path="url(#clip0_0_30)">
<path d="M170.691 45.7925C170.691 46.4445 170.565 47.0901 170.319 47.6924C170.074 48.2947 169.714 48.8419 169.261 49.3027C168.807 49.7635 168.269 50.1288 167.677 50.3779C167.084 50.6269 166.449 50.7547 165.808 50.754H6.02243C4.72735 50.7554 3.48477 50.2335 2.56794 49.3031C1.65111 48.3726 1.13511 47.1099 1.13342 45.7925V6.22583C1.13511 4.90786 1.6509 3.64444 2.56755 2.71298C3.4842 1.78151 4.72677 1.25815 6.02243 1.25781H165.807C166.449 1.25781 167.084 1.38632 167.676 1.63601C168.268 1.88569 168.807 2.25165 169.26 2.71299C169.714 3.17433 170.073 3.72201 170.319 4.32475C170.564 4.92749 170.69 5.57348 170.69 6.22583L170.691 45.7925Z" fill="white"/>
<path d="M165.809 51.905H6.02243C4.42705 51.9046 2.89696 51.2605 1.7679 50.114C0.638839 48.9674 0.00303557 47.4121 0 45.7892L0 6.22382C0.00236014 4.60016 0.637744 3.04375 1.76677 1.89601C2.89579 0.748271 4.42626 0.102933 6.02243 0.101562L165.807 0.101563C167.403 0.103617 168.933 0.749174 170.062 1.89676C171.191 3.04435 171.827 4.60037 171.83 6.22382V45.7892C171.832 49.1625 169.126 51.905 165.809 51.905Z" fill="#A6A6A6"/>
<path d="M170.691 45.7925C170.691 46.4445 170.565 47.0901 170.319 47.6924C170.074 48.2947 169.714 48.8419 169.261 49.3027C168.807 49.7635 168.269 50.1288 167.677 50.3779C167.084 50.6269 166.449 50.7547 165.808 50.754H6.02243C4.72735 50.7554 3.48477 50.2335 2.56794 49.3031C1.65111 48.3726 1.13511 47.1099 1.13342 45.7925V6.22583C1.13511 4.90786 1.6509 3.64444 2.56755 2.71298C3.4842 1.78151 4.72677 1.25815 6.02243 1.25781H165.807C166.449 1.25781 167.084 1.38632 167.676 1.63601C168.268 1.88569 168.807 2.25165 169.26 2.71299C169.714 3.17433 170.073 3.72201 170.319 4.32475C170.564 4.92749 170.69 5.57348 170.69 6.22583L170.691 45.7925Z" fill="#282828"/>
<path d="M38.3683 25.7315C38.3314 21.5563 41.7291 19.525 41.8845 19.4305C39.9602 16.5766 36.9777 16.1867 35.9296 16.1556C33.4246 15.8874 30.9947 17.6803 29.7187 17.6803C28.4171 17.6803 26.4521 16.1815 24.3343 16.2256C21.6089 16.2683 19.0594 17.8734 17.6611 20.3658C14.7753 25.4478 16.9275 32.916 19.6923 37.0239C21.0753 39.037 22.6914 41.282 24.8067 41.203C26.8762 41.1175 27.6492 39.8622 30.1466 39.8622C32.621 39.8622 33.3469 41.203 35.5042 41.1524C37.7252 41.1175 39.1235 39.1316 40.4582 37.1016C42.0564 34.797 42.6983 32.5248 42.7237 32.4082C42.6728 32.3901 38.4116 30.7345 38.3683 25.7315ZM34.2931 13.4533C35.4062 12.0374 36.1677 10.1111 35.9563 8.15625C34.3453 8.22879 32.3306 9.28976 31.1705 10.6746C30.144 11.8949 29.2271 13.8951 29.464 15.776C31.2736 15.9134 33.1317 14.8472 34.2931 13.4533Z" fill="white"/>
<path d="M165.808 0.101563H80.2222L113.745 51.905H165.808C167.404 51.9036 168.934 51.2586 170.063 50.1115C171.192 48.9643 171.828 47.4085 171.831 45.7853V6.22382C171.828 4.60027 171.193 3.04405 170.064 1.89639C168.935 0.748723 167.404 0.103275 165.808 0.101563Z" fill="url(#paint0_linear_0_30)"/>
<path d="M68.3429 40.9168H65.4508L63.8665 35.8529H58.3599L56.8508 40.9168H54.035L59.492 23.6771H62.8617L68.3429 40.9168ZM63.389 33.7284L61.9563 29.2267C61.8047 28.7669 61.5195 27.6839 61.1017 25.9791H61.0508C60.8827 26.7123 60.614 27.7953 60.2459 29.2267L58.8374 33.7284H63.389ZM82.349 34.5484C82.349 36.6626 81.7848 38.3337 80.6552 39.5605C79.6441 40.6525 78.3871 41.1979 76.8882 41.1979C75.2695 41.1979 74.1056 40.6111 73.3988 39.4348V45.9574H70.6836V32.5716C70.6836 31.2438 70.6492 29.8822 70.583 28.4858H72.9709L73.1224 30.4561H73.1733C74.0788 28.9715 75.4529 28.2293 77.297 28.2293C78.7386 28.2293 79.9421 28.8083 80.9048 29.9677C81.8663 31.1298 82.349 32.6558 82.349 34.5484ZM79.5829 34.6495C79.5829 33.4395 79.3155 32.442 78.7781 31.6557C78.191 30.8383 77.4027 30.4289 76.4144 30.4289C75.7446 30.4289 75.1358 30.6569 74.592 31.1064C74.047 31.5598 73.6904 32.1519 73.5236 32.8851C73.4491 33.1593 73.4068 33.4415 73.3975 33.7258V35.7998C73.3975 36.7027 73.67 37.4658 74.2151 38.0902C74.7601 38.712 75.4682 39.0242 76.3393 39.0242C77.3619 39.0242 78.1579 38.6213 78.7271 37.822C79.2977 37.0201 79.5829 35.963 79.5829 34.6495ZM96.4047 34.5484C96.4047 36.6626 95.8406 38.3337 94.711 39.5605C93.6985 40.6525 92.4428 41.1979 90.9426 41.1979C89.324 41.1979 88.16 40.6111 87.4532 39.4348V45.9574H84.7381V32.5716C84.7381 31.2438 84.7037 29.8822 84.6375 28.4858H87.0253L87.1769 30.4561H87.2278C88.132 28.9715 89.5061 28.2293 91.3514 28.2293C92.7918 28.2293 93.9952 28.8083 94.9606 29.9677C95.9208 31.1298 96.4047 32.6558 96.4047 34.5484ZM93.6374 34.6495C93.6374 33.4395 93.3687 32.442 92.8312 31.6557C92.2442 30.8383 91.4584 30.4289 90.4702 30.4289C89.8003 30.4289 89.1916 30.6569 88.6452 31.1064C88.1002 31.5598 87.7448 32.1519 87.578 32.8851C87.4952 33.2271 87.4507 33.5056 87.4507 33.7258V35.7998C87.4507 36.7027 87.7245 37.4658 88.267 38.0902C88.812 38.7107 89.5201 39.0242 90.3938 39.0242C91.4177 39.0242 92.2136 38.6213 92.7816 37.822C93.3521 37.0201 93.6374 35.963 93.6374 34.6495ZM112.12 36.0809C112.12 37.5487 111.616 38.7418 110.613 39.6628C109.51 40.6681 107.971 41.172 105.997 41.172C104.173 41.172 102.711 40.8145 101.608 40.0981L102.236 37.7961C103.427 38.5138 104.735 38.8713 106.159 38.8713C107.182 38.8713 107.978 38.6355 108.546 38.1679C109.116 37.6989 109.403 37.0719 109.403 36.2895C109.403 35.5887 109.165 35.0018 108.698 34.5238C108.228 34.0471 107.451 33.6027 106.36 33.1947C103.392 32.0689 101.908 30.4224 101.908 28.2565C101.908 26.8418 102.432 25.6837 103.479 24.7782C104.526 23.874 105.914 23.4219 107.641 23.4219C109.183 23.4219 110.468 23.6952 111.488 24.2406L110.807 26.4921C109.847 25.9635 108.763 25.6993 107.55 25.6993C106.593 25.6993 105.841 25.9389 105.304 26.4156C104.852 26.8418 104.623 27.3613 104.623 27.9779C104.623 28.6581 104.884 29.2229 105.403 29.6659C105.854 30.074 106.677 30.5183 107.866 30.995C109.326 31.5935 110.398 32.2905 111.084 33.0911C111.776 33.8916 112.12 34.8904 112.12 36.0809ZM121.12 30.5585H118.127V36.5939C118.127 38.129 118.654 38.8946 119.711 38.8946C120.196 38.8946 120.599 38.8532 120.917 38.7664L120.992 40.8637C120.458 41.0671 119.753 41.1694 118.881 41.1694C117.809 41.1694 116.971 40.8365 116.366 40.1706C115.763 39.5048 115.46 38.3894 115.46 36.8193V30.5533H113.677V28.4806H115.46V26.2045L118.127 25.3858V28.4806H121.12V30.5585ZM134.596 34.5989C134.596 36.5097 134.059 38.0785 132.986 39.3053C131.864 40.5683 130.372 41.1979 128.511 41.1979C126.716 41.1979 125.288 40.593 124.223 39.3843C123.159 38.1731 122.626 36.647 122.626 34.8062C122.626 32.8799 123.176 31.302 124.273 30.0753C125.372 28.8472 126.852 28.2331 128.712 28.2331C130.506 28.2331 131.946 28.8394 133.036 30.0494C134.078 31.223 134.596 32.7387 134.596 34.5989ZM131.782 34.6624C131.782 33.5237 131.54 32.547 131.054 31.7295C130.485 30.7424 129.67 30.2489 128.614 30.2489C127.527 30.2489 126.693 30.7424 126.125 31.7295C125.638 32.547 125.396 33.5406 125.396 34.7142C125.396 35.8542 125.638 36.8336 126.125 37.6484C126.712 38.6355 127.531 39.1291 128.591 39.1291C129.629 39.1291 130.443 38.6252 131.031 37.6238C131.531 36.7869 131.782 35.8037 131.782 34.6624ZM143.425 30.9147C143.143 30.8628 142.856 30.8373 142.569 30.8383C141.614 30.8383 140.876 31.2036 140.356 31.9394C139.905 32.5871 139.679 33.4058 139.679 34.3943V40.9168H136.963V32.4006C136.966 31.0956 136.94 29.7908 136.885 28.4871H139.249L139.349 30.8655H139.424C139.712 30.0481 140.163 29.3887 140.781 28.8951C141.348 28.4638 142.036 28.2303 142.744 28.2293C142.995 28.2293 143.222 28.2474 143.423 28.2798L143.425 30.9147ZM155.568 34.1132C155.575 34.533 155.542 34.9525 155.469 35.3658H147.323C147.354 36.5939 147.749 37.5344 148.505 38.1821C149.192 38.7599 150.079 39.0501 151.169 39.0501C152.375 39.0501 153.476 38.8558 154.465 38.4632L154.891 40.3792C153.734 40.8922 152.369 41.1474 150.794 41.1474C148.899 41.1474 147.411 40.58 146.329 39.4478C145.249 38.3143 144.708 36.7908 144.708 34.8826C144.708 33.0094 145.211 31.4484 146.218 30.2035C147.273 28.8744 148.698 28.2098 150.491 28.2098C152.252 28.2098 153.585 28.8744 154.491 30.2035C155.208 31.2567 155.568 32.5625 155.568 34.1132ZM152.979 33.3968C152.998 32.5768 152.82 31.8707 152.452 31.2735C151.982 30.5041 151.259 30.1206 150.289 30.1206C149.402 30.1206 148.678 30.495 148.128 31.2463C147.676 31.8435 147.408 32.5612 147.325 33.3942L152.979 33.3968Z" fill="white"/>
<path d="M57.5767 17.5815C56.8215 17.5815 56.1682 17.544 55.6244 17.4805V9.14561C56.3849 9.0261 57.1535 8.96719 57.9231 8.96943C61.0368 8.96943 62.4708 10.5278 62.4708 13.0682C62.4708 15.9985 60.777 17.5815 57.5767 17.5815ZM58.0326 10.0382C57.6123 10.0382 57.2545 10.0641 56.9578 10.1263V16.4623C57.1182 16.4882 57.4264 16.4998 57.8594 16.4998C59.8996 16.4998 61.061 15.3184 61.061 13.1058C61.061 11.1328 60.0104 10.0382 58.0326 10.0382ZM66.9395 17.645C65.1846 17.645 64.0474 16.312 64.0474 14.5023C64.0474 12.6161 65.2088 11.2714 67.0389 11.2714C68.7683 11.2714 69.931 12.541 69.931 14.4025C69.931 16.312 68.7326 17.645 66.9395 17.645ZM66.9905 12.2637C66.0264 12.2637 65.4088 13.1809 65.4088 14.4634C65.4088 15.7213 66.0392 16.6384 66.9777 16.6384C67.9163 16.6384 68.5467 15.6578 68.5467 14.4375C68.5467 13.1939 67.929 12.2637 66.9905 12.2637ZM79.9382 11.3971L78.0598 17.5064H76.836L76.0579 14.8533C75.8644 14.2044 75.7033 13.5459 75.5752 12.8804H75.5497C75.4517 13.5462 75.2657 14.2134 75.0683 14.8533L74.2406 17.5064H73.004L71.2363 11.3971H72.6079L73.288 14.3015C73.4484 14.9932 73.5834 15.6461 73.6955 16.2628H73.721C73.819 15.7485 73.9795 15.1059 74.2151 14.3144L75.0683 11.3984H76.1559L76.9722 14.2522C77.1696 14.944 77.3301 15.6228 77.4549 16.2641H77.4906C77.5772 15.6358 77.7134 14.9686 77.8981 14.2522L78.6278 11.3984L79.9382 11.3971ZM86.8534 17.5064H85.5188V13.9983C85.5188 12.9179 85.1112 12.3764 84.3076 12.3764C83.5168 12.3764 82.973 13.0682 82.973 13.8727V17.5064H81.6384V13.1433C81.6384 12.6031 81.6256 12.0241 81.5887 11.3958H82.7629L82.8253 12.3389H82.8622C83.2214 11.686 83.9498 11.2714 84.7661 11.2714C86.0269 11.2714 86.8547 12.2521 86.8547 13.8481L86.8534 17.5064ZM90.5338 17.5064H89.1979V8.59375H90.5338V17.5064ZM95.3999 17.645C93.6463 17.645 92.5078 16.312 92.5078 14.5023C92.5078 12.6161 93.6692 11.2714 95.498 11.2714C97.2287 11.2714 98.3901 12.541 98.3901 14.4025C98.3914 16.312 97.1918 17.645 95.3999 17.645ZM95.4496 12.2637C94.4855 12.2637 93.8679 13.1809 93.8679 14.4634C93.8679 15.7213 94.4996 16.6384 95.4356 16.6384C96.3754 16.6384 97.0045 15.6578 97.0045 14.4375C97.0058 13.1939 96.3894 12.2637 95.4496 12.2637ZM103.652 17.5064L103.555 16.803H103.52C103.112 17.3691 102.518 17.645 101.764 17.645C100.688 17.645 99.9234 16.8781 99.9234 15.8469C99.9234 14.339 101.208 13.5592 103.433 13.5592V13.4465C103.433 12.642 103.014 12.2391 102.186 12.2391C101.594 12.2391 101.075 12.3907 100.618 12.6925L100.346 11.8C100.901 11.4476 101.594 11.2714 102.408 11.2714C103.977 11.2714 104.769 12.1135 104.769 13.7988V16.049C104.769 16.6656 104.796 17.1437 104.856 17.5077L103.652 17.5064ZM103.469 14.4634C101.987 14.4634 101.243 14.8287 101.243 15.6954C101.243 16.3366 101.626 16.6501 102.158 16.6501C102.837 16.6501 103.469 16.1229 103.469 15.4065V14.4634ZM111.25 17.5064L111.188 16.5257H111.151C110.767 17.2667 110.123 17.645 109.223 17.645C107.775 17.645 106.702 16.3496 106.702 14.5269C106.702 12.6161 107.814 11.2701 109.332 11.2701C110.136 11.2701 110.705 11.5461 111.026 12.1005H111.053V8.59375H112.389V15.8599C112.389 16.4506 112.403 17.0038 112.438 17.5064H111.25ZM111.053 13.9115C111.053 13.0565 110.496 12.3272 109.647 12.3272C108.657 12.3272 108.052 13.2198 108.052 14.4764C108.052 15.7083 108.68 16.5516 109.62 16.5516C110.459 16.5516 111.053 15.8094 111.053 14.9298V13.9115ZM120.859 17.645C119.105 17.645 117.968 16.312 117.968 14.5023C117.968 12.6161 119.129 11.2714 120.958 11.2714C122.689 11.2714 123.85 12.541 123.85 14.4025C123.851 16.312 122.653 17.645 120.859 17.645ZM120.908 12.2637C119.946 12.2637 119.328 13.1809 119.328 14.4634C119.328 15.7213 119.958 16.6384 120.896 16.6384C121.835 16.6384 122.465 15.6578 122.465 14.4375C122.467 13.1939 121.849 12.2637 120.908 12.2637ZM131.028 17.5064H129.692V13.9983C129.692 12.9179 129.284 12.3764 128.481 12.3764C127.69 12.3764 127.147 13.0682 127.147 13.8727V17.5064H125.811V13.1433C125.811 12.6031 125.799 12.0241 125.762 11.3958H126.936L126.998 12.3389H127.035C127.393 11.686 128.123 11.2701 128.938 11.2701C130.199 11.2701 131.028 12.2508 131.028 13.8468V17.5064ZM140.007 12.4153H138.539V15.3819C138.539 16.1371 138.796 16.5141 139.316 16.5141C139.551 16.5141 139.749 16.4882 139.908 16.4506L139.945 17.4818C139.686 17.5828 139.34 17.6333 138.909 17.6333C137.857 17.6333 137.228 17.0426 137.228 15.4959V12.4153H136.352V11.3971H137.228V10.2778L138.539 9.87494V11.3958H140.007V12.4153ZM147.073 17.5064H145.739V14.0242C145.739 12.9309 145.333 12.3777 144.528 12.3777C143.837 12.3777 143.192 12.8558 143.192 13.8234V17.5064H141.859V8.59375H143.192V12.2637H143.219C143.639 11.5979 144.248 11.2701 145.025 11.2701C146.296 11.2701 147.073 12.2754 147.073 13.8727V17.5064ZM154.311 14.7782H150.306C150.332 15.935 151.084 16.5879 152.198 16.5879C152.791 16.5879 153.336 16.4869 153.817 16.299L154.025 17.2421C153.457 17.4934 152.788 17.6191 152.01 17.6191C150.132 17.6191 149.02 16.4117 149.02 14.5398C149.02 12.6666 150.158 11.2585 151.86 11.2585C153.394 11.2585 154.357 12.4153 154.357 14.1629C154.366 14.3691 154.35 14.5756 154.311 14.7782ZM153.087 13.8105C153.087 12.8674 152.62 12.2016 151.767 12.2016C151 12.2016 150.394 12.8804 150.307 13.8105H153.087Z" fill="white"/>
</g>
<g clip-path="url(#clip1_0_30)">
<path d="M165.63 123.891H6.37037C2.80296 123.891 0 121.043 0 117.417V78.5753C0 74.95 2.80296 72.1016 6.37037 72.1016H165.63C169.197 72.1016 172 74.95 172 78.5753V117.417C172 121.043 169.197 123.891 165.63 123.891Z" fill="#282828"/>
<path d="M165.63 73.1374C168.56 73.1374 170.981 75.5974 170.981 78.5753V117.417C170.981 120.395 168.56 122.855 165.63 122.855H6.37037C3.44 122.855 1.01926 120.395 1.01926 117.417V78.5753C1.01926 75.5974 3.44 73.1374 6.37037 73.1374H165.63ZM165.63 72.1016H6.37037C2.80296 72.1016 0 75.0795 0 78.5753V117.417C0 121.043 2.80296 123.891 6.37037 123.891H165.63C169.197 123.891 172 121.043 172 117.417V78.5753C172 75.0795 169.197 72.1016 165.63 72.1016Z" fill="#A6A6A6"/>
<path d="M60.3911 85.3117C60.3911 86.3475 60.1363 87.2538 59.4993 87.9012C58.7349 88.678 57.843 89.0665 56.6963 89.0665C55.5497 89.0665 54.6578 88.678 53.8934 87.9012C53.1289 87.1243 52.7467 86.218 52.7467 85.0528C52.7467 83.8875 53.1289 82.9812 53.8934 82.2043C54.6578 81.4275 55.5497 81.0391 56.6963 81.0391C57.206 81.0391 57.7156 81.1685 58.2252 81.4275C58.7349 81.6864 59.1171 81.9454 59.3719 82.3338L58.7348 82.9812C58.2252 82.3338 57.5882 82.0749 56.6963 82.0749C55.9319 82.0749 55.1674 82.3338 54.6578 82.9812C54.0208 83.4991 53.766 84.2759 53.766 85.1822C53.766 86.0885 54.0208 86.8654 54.6578 87.3833C55.2949 87.9012 55.9319 88.2896 56.6963 88.2896C57.5882 88.2896 58.2252 88.0307 58.8623 87.3833C59.2445 86.9949 59.4993 86.477 59.4993 85.8296H56.6963V84.7938H60.3911V85.3117ZM66.2519 82.0749H62.8119V84.5349H65.9971V85.4412H62.8119V87.9012H66.2519V88.937H61.7926V81.1685H66.2519V82.0749ZM70.4563 88.937H69.4371V82.0749H67.2711V81.1685H72.6223V82.0749H70.4563V88.937ZM76.3171 88.937V81.1685H77.3363V88.937H76.3171ZM81.6682 88.937H80.6489V82.0749H78.483V81.1685H83.7067V82.0749H81.5408V88.937H81.6682ZM93.7719 87.9012C93.0074 88.678 92.1156 89.0665 90.9689 89.0665C89.8223 89.0665 88.9304 88.678 88.166 87.9012C87.4015 87.1243 87.0193 86.218 87.0193 85.0528C87.0193 83.8875 87.4015 82.9812 88.166 82.2043C88.9304 81.4275 89.8223 81.0391 90.9689 81.0391C92.1156 81.0391 93.0074 81.4275 93.7719 82.2043C94.5363 82.9812 94.9186 83.8875 94.9186 85.0528C94.9186 86.218 94.5363 87.1243 93.7719 87.9012ZM88.9304 87.2538C89.44 87.7717 90.2045 88.1601 90.9689 88.1601C91.7334 88.1601 92.4978 87.9012 93.0074 87.2538C93.5171 86.7359 93.8993 85.9591 93.8993 85.0528C93.8993 84.1464 93.6445 83.3696 93.0074 82.8517C92.4978 82.3338 91.7334 81.9454 90.9689 81.9454C90.2045 81.9454 89.44 82.2043 88.9304 82.8517C88.4208 83.3696 88.0386 84.1464 88.0386 85.0528C88.0386 85.9591 88.2934 86.7359 88.9304 87.2538ZM96.32 88.937V81.1685H97.4667L101.162 87.2538V81.1685H102.181V88.937H101.162L97.2119 82.5928V88.937H96.32Z" fill="white" stroke="white" stroke-width="1.18519" stroke-miterlimit="10"/>
<path d="M86.7645 100.327C83.7067 100.327 81.286 102.658 81.286 105.895C81.286 109.002 83.7067 111.462 86.7645 111.462C89.8223 111.462 92.243 109.132 92.243 105.895C92.243 102.529 89.8223 100.327 86.7645 100.327ZM86.7645 109.132C85.1082 109.132 83.7067 107.707 83.7067 105.765C83.7067 103.823 85.1082 102.399 86.7645 102.399C88.4208 102.399 89.8223 103.694 89.8223 105.765C89.8223 107.707 88.4208 109.132 86.7645 109.132ZM74.9156 100.327C71.8578 100.327 69.4371 102.658 69.4371 105.895C69.4371 109.002 71.8578 111.462 74.9156 111.462C77.9734 111.462 80.3941 109.132 80.3941 105.895C80.3941 102.529 77.9734 100.327 74.9156 100.327ZM74.9156 109.132C73.2593 109.132 71.8578 107.707 71.8578 105.765C71.8578 103.823 73.2593 102.399 74.9156 102.399C76.5719 102.399 77.9734 103.694 77.9734 105.765C77.9734 107.707 76.5719 109.132 74.9156 109.132ZM60.7734 102.011V104.341H66.2519C66.1245 105.636 65.6149 106.672 64.9778 107.319C64.2134 108.096 62.9393 109.002 60.7734 109.002C57.3334 109.002 54.7852 106.283 54.7852 102.787C54.7852 99.2917 57.4608 96.5727 60.7734 96.5727C62.5571 96.5727 63.9586 97.3496 64.9778 98.2559L66.6341 96.5727C65.2326 95.278 63.4489 94.2422 60.9008 94.2422C56.3141 94.2422 52.3645 98.1264 52.3645 102.787C52.3645 107.449 56.3141 111.333 60.9008 111.333C63.4489 111.333 65.2327 110.556 66.7615 108.873C68.2904 107.319 68.8001 105.118 68.8001 103.435C68.8001 102.917 68.8001 102.399 68.6727 102.011H60.7734ZM118.616 103.823C118.107 102.529 116.833 100.327 114.03 100.327C111.227 100.327 108.933 102.529 108.933 105.895C108.933 109.002 111.227 111.462 114.284 111.462C116.705 111.462 118.234 109.909 118.744 109.002L116.96 107.707C116.323 108.614 115.559 109.261 114.284 109.261C113.01 109.261 112.246 108.743 111.609 107.578L118.871 104.471L118.616 103.823ZM111.227 105.636C111.227 103.564 112.883 102.399 114.03 102.399C114.922 102.399 115.813 102.917 116.068 103.564L111.227 105.636ZM105.239 110.944H107.659V94.7601H105.239V110.944ZM101.416 101.493C100.779 100.845 99.7601 100.198 98.486 100.198C95.8104 100.198 93.2623 102.658 93.2623 105.765C93.2623 108.873 95.683 111.203 98.486 111.203C99.7601 111.203 100.779 110.556 101.289 109.909H101.416V110.685C101.416 112.757 100.27 113.922 98.486 113.922C97.0845 113.922 96.0652 112.886 95.8104 111.98L93.7719 112.886C94.4089 114.311 95.9378 116.123 98.6134 116.123C101.416 116.123 103.71 114.44 103.71 110.426V100.586H101.416V101.493ZM98.6134 109.132C96.9571 109.132 95.5556 107.707 95.5556 105.765C95.5556 103.823 96.9571 102.399 98.6134 102.399C100.27 102.399 101.544 103.823 101.544 105.765C101.544 107.707 100.27 109.132 98.6134 109.132ZM129.701 94.7601H123.967V110.944H126.388V104.859H129.701C132.376 104.859 134.924 102.917 134.924 99.8096C134.924 96.7022 132.376 94.7601 129.701 94.7601ZM129.828 102.529H126.388V96.9611H129.828C131.612 96.9611 132.631 98.5148 132.631 99.6801C132.504 101.104 131.484 102.529 129.828 102.529ZM144.48 100.198C142.696 100.198 140.913 100.975 140.276 102.658L142.442 103.564C142.951 102.658 143.716 102.399 144.607 102.399C145.882 102.399 147.028 103.176 147.156 104.471V104.6C146.773 104.341 145.754 103.953 144.735 103.953C142.442 103.953 140.148 105.247 140.148 107.578C140.148 109.779 142.059 111.203 144.098 111.203C145.754 111.203 146.519 110.426 147.156 109.65H147.283V110.944H149.576V104.73C149.322 101.881 147.156 100.198 144.48 100.198ZM144.225 109.132C143.461 109.132 142.314 108.743 142.314 107.707C142.314 106.413 143.716 106.024 144.862 106.024C145.882 106.024 146.391 106.283 147.028 106.542C146.773 108.096 145.499 109.132 144.225 109.132ZM157.603 100.586L154.927 107.578H154.8L151.997 100.586H149.449L153.653 110.426L151.233 115.864H153.653L160.151 100.586H157.603ZM136.199 110.944H138.619V94.7601H136.199V110.944Z" fill="white"/>
<path d="M13.2504 81.8125C12.8681 82.2009 12.7407 82.8483 12.7407 83.6251V112.239C12.7407 113.016 12.9955 113.663 13.3778 114.052L13.5052 114.181L29.3037 98.1262V97.8673L13.2504 81.8125Z" fill="url(#paint1_linear_0_30)"/>
<path d="M34.4 103.568L29.1763 98.2594V97.8709L34.4 92.5625L34.5274 92.692L40.7703 96.3172C42.554 97.353 42.554 99.0362 40.7703 100.072L34.4 103.568Z" fill="url(#paint2_linear_0_30)"/>
<path d="M34.5274 103.438L29.1763 98L13.2504 114.184C13.8874 114.832 14.7793 114.832 15.9259 114.314L34.5274 103.438Z" fill="url(#paint3_linear_0_30)"/>
<path d="M34.5274 92.5626L15.9259 81.8162C14.7793 81.1689 13.8874 81.2983 13.2504 81.9457L29.1763 98.0005L34.5274 92.5626Z" fill="url(#paint4_linear_0_30)"/>
<path opacity="0.2" d="M34.4 103.312L15.9259 113.929C14.9067 114.577 14.0148 114.447 13.3778 113.929L13.2504 114.059L13.3778 114.188C14.0148 114.706 14.9067 114.836 15.9259 114.188L34.4 103.312Z" fill="#282828"/>
<path opacity="0.12" d="M13.2504 113.925C12.8681 113.537 12.7407 112.89 12.7407 112.113V112.242C12.7407 113.019 12.9955 113.666 13.3778 114.055V113.925H13.2504ZM40.7703 99.6832L34.4 103.308L34.5274 103.438L40.7703 99.8126C41.6622 99.2947 42.0444 98.6474 42.0444 98C42.0444 98.6474 41.5348 99.1653 40.7703 99.6832Z" fill="#282828"/>
<path opacity="0.25" d="M15.9259 81.9456L40.7703 96.3173C41.5348 96.8352 42.0444 97.3531 42.0444 98.0004C42.0444 97.3531 41.6622 96.7057 40.7703 96.1878L15.9259 81.8162C14.1422 80.7804 12.7407 81.5572 12.7407 83.6288V83.7583C12.7407 81.8162 14.1422 80.9099 15.9259 81.9456Z" fill="white"/>
</g>
<defs>
<linearGradient id="paint0_linear_0_30" x1="126.025" y1="52.0425" x2="126.025" y2="-134.786" gradientUnits="userSpaceOnUse">
<stop stop-color="#1A1A1A" stop-opacity="0.1"/>
<stop offset="0.123" stop-color="#212121" stop-opacity="0.151"/>
<stop offset="0.308" stop-color="#353535" stop-opacity="0.227"/>
<stop offset="0.532" stop-color="#575757" stop-opacity="0.318"/>
<stop offset="0.783" stop-color="#858585" stop-opacity="0.421"/>
<stop offset="1" stop-color="#B3B3B3" stop-opacity="0.51"/>
</linearGradient>
<linearGradient id="paint1_linear_0_30" x1="27.7748" y1="83.3791" x2="6.048" y2="104.758" gradientUnits="userSpaceOnUse">
<stop stop-color="#00A0FF"/>
<stop offset="0.007" stop-color="#00A1FF"/>
<stop offset="0.26" stop-color="#00BEFF"/>
<stop offset="0.512" stop-color="#00D2FF"/>
<stop offset="0.76" stop-color="#00DFFF"/>
<stop offset="1" stop-color="#00E3FF"/>
</linearGradient>
<linearGradient id="paint2_linear_0_30" x1="43.107" y1="98.0017" x2="12.2782" y2="98.0017" gradientUnits="userSpaceOnUse">
<stop stop-color="#FFE000"/>
<stop offset="0.409" stop-color="#FFBD00"/>
<stop offset="0.775" stop-color="#FFA500"/>
<stop offset="1" stop-color="#FF9C00"/>
</linearGradient>
<linearGradient id="paint3_linear_0_30" x1="31.6314" y1="100.973" x2="2.16955" y2="129.964" gradientUnits="userSpaceOnUse">
<stop stop-color="#FF3A44"/>
<stop offset="1" stop-color="#C31162"/>
</linearGradient>
<linearGradient id="paint4_linear_0_30" x1="9.29691" y1="72.3336" x2="22.4537" y2="85.2803" gradientUnits="userSpaceOnUse">
<stop stop-color="#32A071"/>
<stop offset="0.069" stop-color="#2DA771"/>
<stop offset="0.476" stop-color="#15CF74"/>
<stop offset="0.801" stop-color="#06E775"/>
<stop offset="1" stop-color="#00F076"/>
</linearGradient>
<clipPath id="clip0_0_30">
<rect width="172" height="52" fill="white"/>
</clipPath>
<clipPath id="clip1_0_30">
<rect width="172" height="52" fill="white" transform="translate(0 72)"/>
</clipPath>
</defs>
</svg>
