<svg width="58" height="58" viewBox="0 0 58 58" fill="none" xmlns="http://www.w3.org/2000/svg">
<rect x="1" y="1" width="56" height="56" rx="28" fill="white"/>
<rect x="1" y="1" width="56" height="56" rx="28" stroke="#2D2C65" stroke-width="2"/>
<path d="M19.6667 33.6641H24.3333M19.6667 38.3307H29M24.3333 19.6641H19C16.7909 19.6641 15 21.4549 15 23.6641V38.9974C15 41.2065 16.7909 42.9974 19 42.9974H29.6667C31.8758 42.9974 33.6667 41.2065 33.6667 38.9974V29.5807" stroke="#2D2C65" stroke-width="2" stroke-linecap="round"/>
<path d="M28.9999 19.6667H38.3333M28.9999 24.3333H33.6666M33.1666 29H28.3333C26.1241 29 24.3333 27.2091 24.3333 25V19C24.3333 16.7909 26.1241 15 28.3333 15H38.9999C41.2091 15 42.9999 16.7909 42.9999 19V25C42.9999 27.2091 41.2091 29 38.9999 29H38.5404C38.4078 29 38.2806 29.0527 38.1868 29.1464L34.5201 32.8131C34.2052 33.1281 33.6666 32.905 33.6666 32.4596V29.5C33.6666 29.2239 33.4427 29 33.1666 29Z" stroke="#2D2C65" stroke-width="2" stroke-linecap="round"/>
</svg>
