<svg width="65" height="65" viewBox="0 0 65 65" fill="none" xmlns="http://www.w3.org/2000/svg">
<path d="M41.7165 36.1421L42.2045 37.5605L41.7165 36.1421ZM47.485 34.1572L46.997 32.7388L47.485 34.1572ZM50.015 34.1572L50.503 32.7388L50.015 34.1572ZM55.7835 36.1421L55.2955 37.5605L55.7835 36.1421ZM56.3648 50.5503L55.4703 49.3462L56.3648 50.5503ZM51.0838 54.4739L50.1893 53.2699L51.0838 54.4739ZM46.4162 54.4739L47.3108 53.2699H47.3107L46.4162 54.4739ZM41.1352 50.5503L42.0297 49.3462L41.1352 50.5503ZM39.4972 47.5209L40.9938 47.4198L39.4972 47.5209ZM39.0096 40.3015L37.513 40.4025L39.0096 40.3015ZM58.4904 40.3015L56.9938 40.2004L58.4904 40.3015ZM58.0028 47.5208L56.5062 47.4198L58.0028 47.5208ZM46.8386 43.9184C46.2606 43.3249 45.311 43.3123 44.7175 43.8903C44.124 44.4683 44.1114 45.4179 44.6893 46.0114L46.8386 43.9184ZM47.7547 47.0091L46.68 48.0556L47.7547 49.1591L48.8293 48.0556L47.7547 47.0091ZM52.8107 43.9673C53.3886 43.3738 53.376 42.4241 52.7825 41.8461C52.189 41.2682 51.2394 41.2807 50.6614 41.8742L52.8107 43.9673ZM8.29656 19.9289L7.62118 18.5896H7.62118L8.29656 19.9289ZM27.7966 10.096L27.1212 8.75667V8.75667L27.7966 10.096ZM27.7966 54.5171L28.4719 53.1777L28.4719 53.1777L27.7966 54.5171ZM8.29656 44.6842L8.97193 43.3448H8.97193L8.29656 44.6842ZM50.2034 19.9289L49.5281 21.2683L50.2034 19.9289ZM30.7034 10.096L31.3788 8.75667V8.75667L30.7034 10.096ZM27.75 53.6112C27.75 54.4396 28.4216 55.1112 29.25 55.1112C30.0784 55.1112 30.75 54.4396 30.75 53.6112H27.75ZM51.4905 22.7717C52.2302 22.3987 52.5275 21.4967 52.1545 20.757C51.7815 20.0173 50.8794 19.72 50.1397 20.093L51.4905 22.7717ZM8.36027 20.093C7.62056 19.72 6.71854 20.0173 6.34554 20.757C5.97254 21.4967 6.26982 22.3987 7.00952 22.7717L8.36027 20.093ZM50.5 34.7648C50.5 35.5932 51.1716 36.2648 52 36.2648C52.8284 36.2648 53.5 35.5932 53.5 34.7648H50.5ZM40.4879 51.2632C41.2276 50.8902 41.5249 49.9882 41.1519 49.2485C40.7789 48.5088 39.8768 48.2115 39.1371 48.5845L40.4879 51.2632ZM30.7034 54.5171L30.0281 53.1777L30.0281 53.1777L30.7034 54.5171ZM42.2045 37.5605L47.9731 35.5756L46.997 32.7388L41.2284 34.7237L42.2045 37.5605ZM49.5269 35.5756L55.2955 37.5605L56.2716 34.7237L50.503 32.7388L49.5269 35.5756ZM55.4703 49.3462L50.1893 53.2699L51.9784 55.678L57.2594 51.7543L55.4703 49.3462ZM47.3107 53.2699L42.0297 49.3462L40.2406 51.7543L45.5216 55.678L47.3107 53.2699ZM40.9938 47.4198L40.5062 40.2004L37.513 40.4025L38.0006 47.6219L40.9938 47.4198ZM56.9938 40.2004L56.5062 47.4198L59.4994 47.6219L59.987 40.4025L56.9938 40.2004ZM50.1893 53.2699C49.3276 53.91 48.1724 53.91 47.3108 53.2699L45.5216 55.678C47.4454 57.1073 50.0546 57.1073 51.9784 55.678L50.1893 53.2699ZM47.9731 35.5756C48.4777 35.402 49.0223 35.402 49.5269 35.5756L50.503 32.7388C49.3659 32.3476 48.1341 32.3476 46.997 32.7388L47.9731 35.5756ZM42.0297 49.3462C41.4328 48.9027 41.0464 48.1997 40.9938 47.4198L38.0006 47.6219C38.1112 49.2605 38.9249 50.7768 40.2406 51.7543L42.0297 49.3462ZM57.2594 51.7543C58.5751 50.7768 59.3888 49.2605 59.4994 47.6219L56.5062 47.4198C56.4536 48.1997 56.0672 48.9027 55.4703 49.3462L57.2594 51.7543ZM55.2955 37.5605C56.3527 37.9243 57.0751 38.996 56.9938 40.2004L59.987 40.4025C60.1565 37.8916 58.6533 35.5432 56.2716 34.7237L55.2955 37.5605ZM41.2284 34.7237C38.8467 35.5432 37.3435 37.8916 37.513 40.4025L40.5062 40.2004C40.4249 38.996 41.1473 37.9243 42.2045 37.5605L41.2284 34.7237ZM44.6893 46.0114L46.68 48.0556L48.8293 45.9626L46.8386 43.9184L44.6893 46.0114ZM48.8293 48.0556L52.8107 43.9673L50.6614 41.8742L46.68 45.9626L48.8293 48.0556ZM8 41.7526V22.8605H5V41.7526H8ZM8.97193 21.2683L28.4719 11.4354L27.1212 8.75667L7.62118 18.5896L8.97193 21.2683ZM28.4719 53.1777L8.97193 43.3448L7.62118 46.0236L27.1212 55.8565L28.4719 53.1777ZM50.8788 18.5896L31.3788 8.75667L30.0281 11.4354L49.5281 21.2683L50.8788 18.5896ZM27.75 32.3066V53.6112H30.75V32.3066H27.75ZM29.9254 33.6459L51.4905 22.7717L50.1397 20.093L28.5746 30.9672L29.9254 33.6459ZM7.00952 22.7717L28.5746 33.6459L29.9254 30.9672L8.36027 20.093L7.00952 22.7717ZM50.5 22.8605V34.7648H53.5V22.8605H50.5ZM39.1371 48.5845L30.0281 53.1777L31.3788 55.8565L40.4879 51.2632L39.1371 48.5845ZM27.1212 55.8565C28.4609 56.532 30.0391 56.532 31.3788 55.8565L30.0281 53.1777C29.5379 53.4249 28.9621 53.4249 28.4719 53.1777L27.1212 55.8565ZM28.4719 11.4354C28.9621 11.1882 29.5379 11.1882 30.0281 11.4354L31.3788 8.75667C30.0391 8.08111 28.4609 8.08111 27.1212 8.75667L28.4719 11.4354ZM49.5281 21.2683C50.1191 21.5663 50.5 22.1805 50.5 22.8605H53.5C53.5 21.0576 52.4899 19.402 50.8788 18.5896L49.5281 21.2683ZM8 22.8605C8 22.1805 8.38091 21.5663 8.97193 21.2683L7.62118 18.5896C6.01011 19.402 5 21.0576 5 22.8605H8ZM5 41.7526C5 43.5555 6.01011 45.2112 7.62119 46.0236L8.97193 43.3448C8.38091 43.0468 8 42.4326 8 41.7526H5Z" fill="white"/>
</svg>
