<svg width="47" height="47" viewBox="0 0 47 47" fill="none" xmlns="http://www.w3.org/2000/svg">
<path fill-rule="evenodd" clip-rule="evenodd" d="M7.88922 46.7562H39.1108C43.4597 46.7562 47 43.2441 47 38.9079V7.8483C47 3.51211 43.4696 0 39.1108 0H7.88922C3.53043 0 0 3.51211 0 7.8483V38.9079C0 43.2441 3.53043 46.7562 7.88922 46.7562ZM34.0322 33.5316L29.2297 26.4878C33.1743 25.4577 35.3931 22.3183 35.403 18.2176C35.403 17.9331 35.3734 17.6192 35.3142 17.2954C34.762 14.0973 32.3557 11.4877 29.2494 10.5165C27.9575 10.1142 26.5868 9.89842 25.1568 9.89842C22.4351 9.89842 19.8908 10.6833 17.7706 12.0763C14.0626 14.4701 11.6071 18.6395 11.6071 23.3681C11.6071 28.1163 14.0626 32.2759 17.7706 34.6794C18.5299 35.1601 19.3385 35.582 20.1768 35.9057C21.7152 36.5041 23.4015 36.8475 25.1568 36.8475C27.7701 36.8475 30.1961 36.1215 32.2571 34.8364C32.8883 34.4636 33.48 34.0319 34.0322 33.5316Z" fill="#FE9800"/>
</svg>
