<svg width="47" height="47" viewBox="0 0 47 47" fill="none" xmlns="http://www.w3.org/2000/svg">
<path fill-rule="evenodd" clip-rule="evenodd" d="M7.88923 46.7563H39.1109C43.4598 46.7563 47.0001 43.2442 47.0001 38.908V7.84831C47.0001 3.51212 43.4697 0 39.1109 0H7.88923C3.53043 0 0 3.51212 0 7.84831V38.908C0 43.2442 3.53043 46.7563 7.88923 46.7563ZM34.0323 33.5316L29.2297 26.4878C33.1743 25.4577 35.3931 22.3184 35.403 18.2176C35.403 17.9331 35.3734 17.6192 35.3143 17.2955C34.762 14.0973 32.3558 11.4877 29.2494 10.5165C27.9575 10.1143 26.5868 9.89844 25.1569 9.89844C22.4351 9.89844 19.8908 10.6833 17.7706 12.0763C14.0626 14.4701 11.6071 18.6395 11.6071 23.3681C11.6071 28.1163 14.0626 32.2759 17.7706 34.6795C18.5299 35.1602 19.3386 35.582 20.1768 35.9058C21.7152 36.5042 23.4015 36.8476 25.1569 36.8476C27.7702 36.8476 30.1961 36.1216 32.2572 34.8364C32.8883 34.4636 33.48 34.032 34.0323 33.5316Z" fill="#FE9800"/>
</svg>
